<svg width="171" height="214" viewBox="0 0 171 214" fill="none" xmlns="http://www.w3.org/2000/svg">
<path d="M116.068 90.0059C61.819 80.5647 48.572 78.6765 47.9412 57.9059V40.2824H49.2029H70.6503C84.528 40.2824 94.6209 41.5412 100.929 44.6882C101.56 45.3176 102.191 45.3176 103.452 45.9471C104.083 46.5765 104.714 47.2059 105.345 47.8353C108.499 51.6118 109.76 56.6471 109.76 63.5706C109.76 66.7176 109.76 68.6059 109.129 70.4941C109.129 71.7529 109.76 72.3824 110.391 73.0118C121.115 74.2706 136.885 77.4176 149.501 84.3412C150.132 84.9706 151.393 84.3412 152.024 83.7118C157.071 76.7882 158.963 68.6059 158.963 56.6471C158.963 42.8 153.917 30.2118 144.455 19.5118C143.824 18.2529 142.562 17.6235 141.301 16.3647C140.67 15.7353 140.039 15.1059 138.777 14.4765C138.777 13.8471 138.146 13.2176 136.885 12.5882C136.254 11.9588 135.623 11.3294 134.362 11.3294C134.362 11.3294 133.731 11.3294 133.731 10.7C133.1 10.0706 132.469 10.0706 131.208 9.44118C130.577 9.44118 130.577 8.81176 129.946 8.81176C129.315 8.18235 128.684 8.18235 128.054 7.55294C127.423 7.55294 126.792 6.92353 126.161 6.92353C125.53 6.92353 124.9 6.29412 124.269 6.29412C123.007 5.66471 121.746 5.66471 120.484 5.03529C119.222 4.40588 117.961 4.40588 116.699 3.77647C116.068 3.77647 114.807 3.14706 114.176 3.14706C113.545 3.14706 112.914 3.14706 112.283 2.51765C111.022 2.51765 109.76 1.88824 108.499 1.88824H107.868C106.606 1.88824 105.345 1.25882 103.452 1.25882C97.1441 0.629412 90.836 0 83.8972 0H83.2664H70.0194H30.2787H3.78484C1.89242 0 0 1.88824 0 3.77647V23.2882V40.2824V65.4588C3.15403 111.406 60.5574 122.106 77.5891 125.253C89.5744 127.141 103.452 129.029 111.022 132.176C117.961 135.324 121.746 140.988 121.746 150.429C121.115 159.241 117.961 165.535 111.653 168.682C104.714 171.829 94.6209 173.718 80.7431 173.718H47.9412V139.729C47.9412 139.1 47.3104 137.841 46.6796 137.841C23.9706 132.176 10.7237 121.476 3.15403 113.294C2.52322 111.406 0 112.035 0 113.924V214H93.9901C123.638 214 144.455 207.076 155.809 193.859C165.902 182.529 170.948 169.312 170.948 154.206C171.579 132.806 167.164 99.4471 116.068 90.0059Z" fill="white"/>
</svg>
